<svg width="29" height="33" viewBox="0 0 29 33" fill="none" xmlns="http://www.w3.org/2000/svg">
<path fill-rule="evenodd" clip-rule="evenodd" d="M17.1999 9H11.5999V13.8C11.5999 14.9046 10.7045 15.8 9.5999 15.8C8.49533 15.8 7.5999 14.9046 7.5999 13.8V9H4.95093C3.94853 9 3.10096 9.74206 2.96848 10.7357L0.301811 30.7357C0.141949 31.9346 1.07469 33 2.28427 33H26.5155C27.7251 33 28.6579 31.9346 28.498 30.7357L25.8313 10.7357C25.6988 9.74206 24.8513 9 23.8489 9H21.1999V13.8C21.1999 14.9046 20.3045 15.8 19.1999 15.8C18.0953 15.8 17.1999 14.9046 17.1999 13.8V9Z" fill="white"/>
<path d="M9.6001 13.8V5.80001C9.6001 3.14904 11.7491 1 14.4001 1V1V1C17.0511 1 19.2001 3.14903 19.2001 5.8V13.8" stroke="white" stroke-width="1.5" stroke-linecap="round"/>
</svg>
